<svg width="24" height="24" viewBox="0 0 24 24" fill="none" xmlns="http://www.w3.org/2000/svg">
<path d="M12 24C18.6274 24 24 18.6274 24 12C24 5.37258 18.6274 0 12 0C5.37258 0 0 5.37258 0 12C0 18.6274 5.37258 24 12 24Z" fill="black"/>
<path d="M15.7246 7.46021C15.2687 7.46021 14.8989 7.83004 14.8989 8.28589C14.8989 8.74174 15.2687 9.11158 15.7246 9.11158C16.1804 9.11158 16.5503 8.74174 16.5503 8.28589C16.5503 7.83004 16.1804 7.46021 15.7246 7.46021Z" fill="white"/>
<path d="M12.0572 8.51819C10.1461 8.51819 8.59277 10.0732 8.59277 11.9826C8.59277 13.892 10.1478 15.4471 12.0572 15.4471C13.9666 15.4471 15.5217 13.892 15.5217 11.9826C15.5217 10.0732 13.9666 8.51819 12.0572 8.51819ZM12.0572 14.2034C10.8325 14.2034 9.83818 13.2074 9.83818 11.9844C9.83818 10.7613 10.8342 9.76532 12.0572 9.76532C13.2803 9.76532 14.2763 10.7613 14.2763 11.9844C14.2763 13.2074 13.2803 14.2034 12.0572 14.2034Z" fill="white"/>
<path d="M14.8075 19.0182H9.18935C6.8585 19.0182 4.96289 17.1226 4.96289 14.7918V9.17363C4.96289 6.84278 6.8585 4.94714 9.18935 4.94714H14.8075C17.1383 4.94714 19.034 6.84278 19.034 9.17363V14.7918C19.034 17.1226 17.1383 19.0182 14.8075 19.0182V19.0182ZM9.18935 6.27168C7.58958 6.27168 6.28742 7.57386 6.28742 9.17363V14.7918C6.28742 16.3915 7.58958 17.6937 9.18935 17.6937H14.8075C16.4073 17.6937 17.7094 16.3915 17.7094 14.7918V9.17363C17.7094 7.57214 16.4073 6.27168 14.8075 6.27168H9.18935Z" fill="white"/>
</svg>
